<svg width="22" height="30" viewBox="0 0 22 30" fill="none" xmlns="http://www.w3.org/2000/svg">
<path d="M11 6.0625C6.07191 6.0625 2.0625 10.0719 2.0625 15C2.0625 19.9281 6.07191 23.9375 11 23.9375C15.9281 23.9375 19.9375 19.9281 19.9375 15C19.9375 10.0719 15.9281 6.0625 11 6.0625ZM11 19.8086C10.83 19.8086 10.6639 19.7582 10.5226 19.6638C10.3812 19.5694 10.2711 19.4352 10.206 19.2781C10.141 19.1211 10.124 18.9483 10.1571 18.7816C10.1903 18.6149 10.2721 18.4618 10.3923 18.3416C10.5125 18.2214 10.6656 18.1396 10.8323 18.1064C10.999 18.0732 11.1718 18.0903 11.3289 18.1553C11.4859 18.2203 11.6201 18.3305 11.7145 18.4718C11.809 18.6131 11.8594 18.7793 11.8594 18.9493C11.8594 19.1772 11.7688 19.3958 11.6077 19.5569C11.4465 19.7181 11.2279 19.8086 11 19.8086ZM11.9333 11.1655L11.6866 16.4077C11.6866 16.59 11.6142 16.7649 11.4853 16.8938C11.3563 17.0227 11.1815 17.0952 10.9991 17.0952C10.8168 17.0952 10.6419 17.0227 10.513 16.8938C10.3841 16.7649 10.3116 16.59 10.3116 16.4077L10.065 11.168V11.1659C10.0596 11.04 10.0797 10.9142 10.1242 10.7963C10.1687 10.6784 10.2365 10.5706 10.3237 10.4796C10.4109 10.3886 10.5156 10.3162 10.6316 10.2667C10.7475 10.2172 10.8722 10.1917 10.9983 10.1917C11.1243 10.1917 11.2491 10.2172 11.365 10.2667C11.4809 10.3162 11.5856 10.3886 11.6728 10.4796C11.76 10.5706 11.8279 10.6784 11.8724 10.7963C11.9168 10.9142 11.937 11.04 11.9316 11.1659L11.9333 11.1655Z" fill="#C62828"/>
</svg>
