<svg width="33" height="34" viewBox="0 0 33 34" fill="none" xmlns="http://www.w3.org/2000/svg">
<g clip-path="url(#clip0_337_1171)">
<path d="M24.6678 17.5764C24.6678 12.2258 19.7376 9.03162 14.9687 9.03162C13.6301 9.0212 12.3028 9.27817 11.0648 9.78747C9.82681 10.2968 8.70294 11.0481 7.75913 11.9975C6.81533 12.9469 6.07058 14.0751 5.56856 15.3161C5.06655 16.5571 4.81737 17.8858 4.83565 19.2244C4.73972 20.734 5.02789 22.2433 5.67326 23.6114C6.31864 24.9794 7.30017 26.1617 8.5262 27.0476C8.61578 27.1101 8.68895 27.1933 8.73949 27.2901C8.79002 27.3869 8.81643 27.4945 8.81645 27.6037V32.5977C8.81645 32.7776 8.8879 32.9501 9.01508 33.0772C9.14226 33.2044 9.31476 33.2759 9.49462 33.2759H19.4473C19.6272 33.2759 19.7997 33.2044 19.9268 33.0772C20.054 32.9501 20.1255 32.7776 20.1255 32.5977V29.9719C20.1255 29.792 20.1969 29.6195 20.3241 29.4923C20.4513 29.3652 20.6238 29.2937 20.8036 29.2937H21.9348C22.6418 29.2937 23.3199 29.0132 23.8203 28.5138C24.3207 28.0144 24.6026 27.3369 24.604 26.6299V25.0104C24.604 24.8336 24.673 24.6637 24.7964 24.537C24.9198 24.4104 25.0878 24.3369 25.2646 24.3323C25.3378 24.3323 25.4083 24.3323 25.4762 24.3241C25.6928 24.3161 25.9047 24.2584 26.0954 24.1553C26.2861 24.0523 26.4506 23.9068 26.5761 23.7301C26.7528 23.4401 26.8317 23.1012 26.8013 22.763C26.6671 21.3804 26.1702 20.0577 25.3609 18.9287C25.0906 18.4992 24.8587 18.0467 24.6678 17.5764Z" fill="#F1786C"/>
<path d="M18.4897 6.03685C18.5408 6.06883 18.5837 6.11245 18.6148 6.16415C18.6458 6.21586 18.6643 6.27419 18.6685 6.33437C18.6727 6.39455 18.6627 6.45487 18.6391 6.51042C18.6156 6.56597 18.5792 6.61516 18.5331 6.65398C18.2652 6.88661 18.0992 7.21491 18.0706 7.56851C18.042 7.9221 18.153 8.27284 18.3799 8.54552C18.6068 8.81821 18.9315 8.99114 19.2845 9.02724C19.6374 9.06334 19.9904 8.95974 20.2678 8.73865C20.6442 8.4259 20.941 8.02826 21.1337 7.57844C21.3264 7.12861 21.4096 6.63945 21.3763 6.15121C21.3431 5.66297 21.1944 5.1896 20.9425 4.77004C20.6906 4.35048 20.3427 3.99673 19.9274 3.73789C19.8766 3.70515 19.8345 3.66072 19.8046 3.60832C19.7746 3.55592 19.7576 3.4971 19.7551 3.43678C19.7504 3.37686 19.7602 3.31667 19.7838 3.26139C19.8075 3.20612 19.8441 3.15739 19.8907 3.1194C20.1666 2.88847 20.3395 2.55738 20.3713 2.19899C20.4031 1.8406 20.2912 1.48425 20.0603 1.20835C19.8293 0.932443 19.4983 0.759579 19.1399 0.727784C18.7815 0.695989 18.4251 0.807867 18.1492 1.03881C17.7736 1.35176 17.4776 1.74929 17.2854 2.1988C17.0932 2.64831 17.0103 3.13699 17.0435 3.62474C17.0767 4.11249 17.2251 4.58541 17.4765 5.0047C17.7279 5.424 18.0751 5.77772 18.4897 6.03685Z" fill="#F1786C"/>
<path d="M26.7104 8.48634C26.6592 8.45371 26.6166 8.40915 26.5864 8.35647C26.5561 8.3038 26.5391 8.24457 26.5368 8.18388C26.5319 8.12394 26.5417 8.06372 26.5654 8.00842C26.589 7.95312 26.6257 7.90441 26.6724 7.8665C26.9489 7.63628 27.1225 7.30567 27.1552 6.94741C27.1879 6.58914 27.0769 6.23257 26.8467 5.95612C26.7327 5.81924 26.5929 5.70615 26.4352 5.62331C26.2775 5.54048 26.105 5.48951 25.9276 5.47333C25.5693 5.44064 25.2128 5.55161 24.9363 5.78184C24.5608 6.09516 24.2649 6.49302 24.0728 6.94281C23.8807 7.39259 23.798 7.88148 23.8313 8.36942C23.8647 8.85736 24.0132 9.33045 24.2646 9.74991C24.5161 10.1694 24.8634 10.5233 25.2781 10.7826C25.3289 10.8144 25.3714 10.8578 25.4022 10.9092C25.433 10.9606 25.4512 11.0186 25.4553 11.0784C25.4594 11.1382 25.4493 11.1981 25.4258 11.2533C25.4023 11.3084 25.3661 11.3572 25.3202 11.3957C25.179 11.5082 25.0617 11.6477 24.9751 11.8062C24.8886 11.9646 24.8346 12.1387 24.8162 12.3183C24.7978 12.4979 24.8155 12.6794 24.8682 12.852C24.9208 13.0247 25.0074 13.1851 25.1229 13.3239C25.2384 13.4627 25.3804 13.577 25.5406 13.6602C25.7009 13.7433 25.8761 13.7937 26.056 13.8082C26.236 13.8228 26.417 13.8013 26.5885 13.745C26.76 13.6887 26.9186 13.5987 27.0549 13.4803C27.4308 13.1676 27.7272 12.7702 27.9197 12.3207C28.1122 11.8713 28.1953 11.3825 28.1622 10.8947C28.1291 10.4068 27.9807 9.93379 27.7293 9.51442C27.4779 9.09505 27.1305 8.74132 26.7158 8.48227L26.7104 8.48634Z" fill="#F1786C"/>
<path d="M10.425 5.78862C10.4544 5.80769 10.479 5.83332 10.4969 5.86351C10.5147 5.8937 10.5253 5.92762 10.5278 5.96259C10.5303 5.99757 10.5246 6.03265 10.5113 6.06506C10.4979 6.09748 10.4772 6.12635 10.4508 6.14941C10.1736 6.37945 9.99919 6.71017 9.96587 7.06881C9.93255 7.42746 10.0431 7.78466 10.2731 8.06182C10.5031 8.33898 10.8339 8.51341 11.1925 8.54673C11.5512 8.58005 11.9084 8.46954 12.1855 8.2395C12.5424 7.94239 12.8238 7.56486 13.0065 7.13793C13.1891 6.71099 13.268 6.24681 13.2365 5.78349C13.205 5.32018 13.064 4.87094 12.8252 4.47267C12.5864 4.07439 12.2565 3.73843 11.8627 3.49237C11.832 3.47384 11.8064 3.44808 11.7879 3.41735C11.7695 3.38662 11.7588 3.35184 11.7569 3.31605C11.7533 3.28009 11.7588 3.2438 11.773 3.21058C11.7873 3.17736 11.8097 3.14831 11.8383 3.12616C12.1151 2.89594 12.2891 2.56519 12.3221 2.20667C12.355 1.84815 12.2442 1.49123 12.0139 1.21443C11.7837 0.937624 11.453 0.763613 11.0945 0.730673C10.7359 0.697733 10.379 0.808564 10.1022 1.03878C9.74584 1.33622 9.46499 1.71383 9.28265 2.1407C9.10031 2.56756 9.02167 3.03155 9.05316 3.49466C9.08465 3.95777 9.22538 4.40684 9.46383 4.80509C9.70228 5.20334 10.0317 5.53946 10.425 5.78591V5.78862Z" fill="#F1786C"/>
</g>
<defs>
<clipPath id="clip0_337_1171">
<rect width="32.5517" height="32.5517" fill="white" transform="translate(0.224121 0.724121)"/>
</clipPath>
</defs>
</svg>
