<svg width="22" height="30" viewBox="0 0 22 30" fill="none" xmlns="http://www.w3.org/2000/svg">
<path d="M11 6.40625C6.26141 6.40625 2.40625 10.2614 2.40625 15C2.40625 19.7386 6.26141 23.5938 11 23.5938C15.7386 23.5938 19.5938 19.7386 19.5938 15C19.5938 10.2614 15.7386 6.40625 11 6.40625ZM11 9.92969C11.221 9.92969 11.437 9.99521 11.6207 10.118C11.8044 10.2407 11.9476 10.4152 12.0321 10.6193C12.1167 10.8235 12.1388 11.0481 12.0957 11.2648C12.0526 11.4815 11.9462 11.6806 11.79 11.8368C11.6337 11.9931 11.4347 12.0995 11.218 12.1426C11.0012 12.1857 10.7766 12.1636 10.5725 12.079C10.3683 11.9945 10.1939 11.8513 10.0711 11.6676C9.94833 11.4838 9.88281 11.2678 9.88281 11.0469C9.88281 10.7506 10.0005 10.4664 10.21 10.2569C10.4195 10.0474 10.7037 9.92969 11 9.92969ZM13.0625 19.6406H9.28125C9.09891 19.6406 8.92405 19.5682 8.79511 19.4393C8.66618 19.3103 8.59375 19.1355 8.59375 18.9531C8.59375 18.7708 8.66618 18.5959 8.79511 18.467C8.92405 18.3381 9.09891 18.2656 9.28125 18.2656H10.4844V14.4844H9.79688C9.61454 14.4844 9.43967 14.4119 9.31074 14.283C9.18181 14.1541 9.10938 13.9792 9.10938 13.7969C9.10938 13.6145 9.18181 13.4397 9.31074 13.3107C9.43967 13.1818 9.61454 13.1094 9.79688 13.1094H11.1719C11.3542 13.1094 11.5291 13.1818 11.658 13.3107C11.7869 13.4397 11.8594 13.6145 11.8594 13.7969V18.2656H13.0625C13.2448 18.2656 13.4197 18.3381 13.5486 18.467C13.6776 18.5959 13.75 18.7708 13.75 18.9531C13.75 19.1355 13.6776 19.3103 13.5486 19.4393C13.4197 19.5682 13.2448 19.6406 13.0625 19.6406Z" fill="#1E6FBB"/>
</svg>
