<svg width="32" height="33" viewBox="0 0 32 33" fill="none" xmlns="http://www.w3.org/2000/svg">
<path d="M6.5 31.5H4.5C4.10218 31.5 3.72064 31.342 3.43934 31.0607C3.15804 30.7794 3 30.3978 3 30V21C3 20.6022 3.15804 20.2206 3.43934 19.9393C3.72064 19.658 4.10218 19.5 4.5 19.5H6.5C6.89782 19.5 7.27936 19.658 7.56066 19.9393C7.84196 20.2206 8 20.6022 8 21V30C8 30.3978 7.84196 30.7794 7.56066 31.0607C7.27936 31.342 6.89782 31.5 6.5 31.5Z" fill="#E5BEB0"/>
<path d="M20.5 31.5H18.5C18.1022 31.5 17.7206 31.342 17.4393 31.0607C17.158 30.7794 17 30.3978 17 30V15C17 14.6022 17.158 14.2206 17.4393 13.9393C17.7206 13.658 18.1022 13.5 18.5 13.5H20.5C20.8978 13.5 21.2794 13.658 21.5607 13.9393C21.842 14.2206 22 14.6022 22 15V30C22 30.3978 21.842 30.7794 21.5607 31.0607C21.2794 31.342 20.8978 31.5 20.5 31.5Z" fill="#E5BEB0"/>
<path d="M27.5 31.5H25.5C25.1022 31.5 24.7206 31.342 24.4393 31.0607C24.158 30.7794 24 30.3978 24 30V8C24 7.60218 24.158 7.22064 24.4393 6.93934C24.7206 6.65804 25.1022 6.5 25.5 6.5H27.5C27.8978 6.5 28.2794 6.65804 28.5607 6.93934C28.842 7.22064 29 7.60218 29 8V30C29 30.3978 28.842 30.7794 28.5607 31.0607C28.2794 31.342 27.8978 31.5 27.5 31.5Z" fill="#E5BEB0"/>
<path d="M13.5 31.5H11.5C11.1022 31.5 10.7206 31.342 10.4393 31.0607C10.158 30.7794 10 30.3978 10 30V3C10 2.60218 10.158 2.22064 10.4393 1.93934C10.7206 1.65804 11.1022 1.5 11.5 1.5H13.5C13.8978 1.5 14.2794 1.65804 14.5607 1.93934C14.842 2.22064 15 2.60218 15 3V30C15 30.3978 14.842 30.7794 14.5607 31.0607C14.2794 31.342 13.8978 31.5 13.5 31.5Z" fill="#E5BEB0"/>
</svg>
