<svg width="22" height="30" viewBox="0 0 22 30" fill="none" xmlns="http://www.w3.org/2000/svg">
<path d="M11 6.0625C6.07191 6.0625 2.0625 10.0719 2.0625 15C2.0625 19.9281 6.07191 23.9375 11 23.9375C15.9281 23.9375 19.9375 19.9281 19.9375 15C19.9375 10.0719 15.9281 6.0625 11 6.0625ZM15.6514 12.0046L9.87637 18.8796C9.81302 18.9551 9.73419 19.0161 9.64523 19.0584C9.55627 19.1007 9.45925 19.1234 9.36074 19.125H9.34914C9.25278 19.125 9.1575 19.1047 9.06948 19.0654C8.98147 19.0262 8.90269 18.9689 8.83824 18.8973L6.36324 16.1473C6.30039 16.0806 6.25149 16.002 6.21943 15.9162C6.18737 15.8304 6.17279 15.739 6.17655 15.6474C6.1803 15.5559 6.20232 15.466 6.24131 15.3831C6.2803 15.3002 6.33547 15.2259 6.40358 15.1646C6.47169 15.1033 6.55136 15.0563 6.63791 15.0262C6.72447 14.9961 6.81616 14.9837 6.9076 14.9896C6.99904 14.9954 7.08838 15.0195 7.17037 15.0604C7.25236 15.1013 7.32534 15.1582 7.38504 15.2277L9.33109 17.3899L14.5986 11.1204C14.7168 10.9837 14.884 10.8991 15.064 10.8848C15.244 10.8704 15.4225 10.9275 15.5608 11.0437C15.6991 11.1599 15.7861 11.3258 15.8031 11.5056C15.82 11.6854 15.7655 11.8647 15.6514 12.0046Z" fill="#2E7D32"/>
</svg>
