<svg width="32" height="33" viewBox="0 0 32 33" fill="none" xmlns="http://www.w3.org/2000/svg">
<path d="M16 3.5C8.82062 3.5 3 9.32062 3 16.5C3 23.6794 8.82062 29.5 16 29.5C23.1794 29.5 29 23.6794 29 16.5C29 9.32062 23.1794 3.5 16 3.5ZM22 18.5H16C15.7348 18.5 15.4804 18.3946 15.2929 18.2071C15.1054 18.0196 15 17.7652 15 17.5V8.5C15 8.23478 15.1054 7.98043 15.2929 7.79289C15.4804 7.60536 15.7348 7.5 16 7.5C16.2652 7.5 16.5196 7.60536 16.7071 7.79289C16.8946 7.98043 17 8.23478 17 8.5V16.5H22C22.2652 16.5 22.5196 16.6054 22.7071 16.7929C22.8946 16.9804 23 17.2348 23 17.5C23 17.7652 22.8946 18.0196 22.7071 18.2071C22.5196 18.3946 22.2652 18.5 22 18.5Z" fill="#448B7E"/>
</svg>
